<svg width="45" height="45" viewBox="0 0 60 58" fill="none" xmlns="http://www.w3.org/2000/svg">
<g clip-path="url(#clip0_1_12)">
<path d="M52.8231 43.8433H17.551L7.17688 0.950806H0.952393M9.25171 9.12081H59.0476L52.8231 35.6733H15.4762L9.25171 9.12081Z" stroke="black" stroke-width="2" stroke-linecap="round" stroke-linejoin="round"/>
<path d="M48.6735 56.0983C50.9653 56.0983 52.8231 54.2694 52.8231 52.0133C52.8231 49.7572 50.9653 47.9283 48.6735 47.9283C46.3817 47.9283 44.5238 49.7572 44.5238 52.0133C44.5238 54.2694 46.3817 56.0983 48.6735 56.0983Z" stroke="black" stroke-width="2" stroke-linecap="round" stroke-linejoin="round"/>
<path d="M21.7007 56.0983C23.9925 56.0983 25.8503 54.2694 25.8503 52.0133C25.8503 49.7572 23.9925 47.9283 21.7007 47.9283C19.4089 47.9283 17.551 49.7572 17.551 52.0133C17.551 54.2694 19.4089 56.0983 21.7007 56.0983Z" stroke="black" stroke-width="2" stroke-linecap="round" stroke-linejoin="round"/>
</g>
<defs>
<clipPath id="clip0_1_12">
<rect width="60" height="58" fill="white"/>
</clipPath>
</defs>
</svg>
