<svg width="45" height="45" viewBox="0 0 67 62" fill="none" xmlns="http://www.w3.org/2000/svg">
<path d="M11.0897 31.3445H7.62415V58.6704H11.0897V31.3445Z" fill="black"/>
<path d="M59.8379 31.3445H56.3724V58.6704H59.8379V31.3445Z" fill="black"/>
<path d="M64.9207 58.0963H2.54138V61.5407H64.9207V58.0963Z" fill="black"/>
<path fill-rule="evenodd" clip-rule="evenodd" d="M54.5241 33.0667C50.1345 33.0667 46.2069 30.7704 44.1276 27.2111C42.0483 30.7704 38.1207 33.0667 33.731 33.0667C29.3414 33.0667 25.4138 30.7704 23.3345 27.2111C21.2552 30.7704 17.3276 33.0667 12.9379 33.0667C6.23793 33.0667 0.808624 27.6704 0.808624 21.0111V20.6667L9.01035 0.459259H58.2207L66.5379 20.6667V21.0111C66.6534 27.6704 61.2241 33.0667 54.5241 33.0667ZM45.8603 21.0111C45.8603 25.7185 49.7879 29.6222 54.5241 29.6222C59.1448 29.6222 62.9569 25.9481 63.1879 21.3556L56.0259 3.9037H11.4362L4.27414 21.3556C4.38966 25.9481 8.31724 29.6222 12.9379 29.6222C17.6741 29.6222 21.6017 25.7185 21.6017 21.0111H25.0672C25.0672 25.7185 28.9948 29.6222 33.731 29.6222C38.4672 29.6222 42.3948 25.7185 42.3948 21.0111H45.8603Z" fill="black"/>
</svg>
